<svg xmlns="http://www.w3.org/2000/svg" width="615" height="184" fill="none" viewBox="0 0 615 184">
  <path fill="#fff" d="M83.269 5.369C44.221 8.834 13.032 35.775 4.686 73.259c-9.176 41.534 9.957 82.384 47.052 100.199 22.648 10.884 50.372 11.811 73.166 2.44 6.931-2.879 15.716-8.199 20.646-12.543l1.757-1.562-5.857-7.565c-3.221-4.148-6.15-7.955-6.492-8.443-.537-.781-.927-.635-4.832 2.342-5.076 3.807-14.496 8.541-20.549 10.25-12.983 3.758-27.333 3.465-40.267-.83-15.766-5.174-29.286-17.033-37.096-32.554-2.245-4.539-5.173-13.715-6.1-19.327-1.075-6.443-1.075-17.473 0-23.915.927-5.613 3.855-14.789 6.1-19.328 6.638-13.177 17.181-23.622 30.018-29.674 14.497-6.882 31.677-8.2 47.345-3.71 6.053 1.709 15.473 6.443 20.549 10.25 3.905 2.977 4.295 3.124 4.832 2.343.342-.488 3.271-4.295 6.492-8.444l5.857-7.565-1.757-1.562c-2.733-2.391-9.664-7.076-13.764-9.322-13.472-7.223-31.922-10.786-48.517-9.37Zm141.743 88.339v86.875h100.059v-21.474l-38.901-.098-38.95-.146V28.552l38.95-.147 38.901-.097V6.833H225.012v86.875ZM406.827 7.419c-.146.341-.195 39.386-.146 86.777l.146 86.143 11.129.147 11.08.097v-67.206l17.718-.293c14.935-.195 18.547-.39 23.477-1.269 13.667-2.44 24.307-7.809 32.409-16.399 6.785-7.174 10.983-16.057 12.544-26.404 2.636-17.668-2.294-34.506-13.373-45.634-9.323-9.322-22.648-14.788-39.243-16.057-9.42-.732-55.497-.635-55.741.098Zm53.74 20.4c10.445.928 18.596 4.198 24.112 9.762 5.857 5.857 8.297 12.494 8.297 22.45 0 9.957-2.489 16.644-8.297 22.452-3.71 3.709-8.005 6.15-14.399 8.102l-4.393 1.366-18.401.195-18.45.147V27.33h13.081c7.175 0 15.472.245 18.45.489Zm130.028 65.889v86.875h21.964V6.833h-21.964v86.875Z"/>
  <circle cx="288" cy="97" r="20" fill="#FF5F58"/>
</svg>
