<svg xmlns="http://www.w3.org/2000/svg" width="200" height="200" fill="none" viewBox="0 0 200 200">
  <path stroke="#000" stroke-linecap="round" stroke-linejoin="round" stroke-width="8" d="M58.333 116.667c-13.807 0-25 11.192-25 25 0 13.807 11.193 25 25 25 2.922 0 5.727-.502 8.334-1.423"/>
  <path stroke="#000" stroke-linecap="round" stroke-linejoin="round" stroke-width="8" d="M35.533 130.038C24.369 124.652 16.667 113.225 16.667 100c0-10.097 4.49-19.146 11.581-25.258m.256-.674A20.736 20.736 0 0 1 25 62.5c0-11.506 9.327-20.833 20.833-20.833 4.691 0 9.02 1.55 12.502 4.166m1.979.545a20.752 20.752 0 0 1-1.98-8.878c0-11.506 9.327-20.833 20.833-20.833C90.672 16.667 100 25.994 100 37.5v129.167m-33.333 0c0 9.205 7.462 16.666 16.666 16.666 9.205 0 16.667-7.461 16.667-16.666m0-108.334c0 13.807 11.192 25 25 25m46.752-8.591c7.091 6.112 11.581 15.16 11.581 25.258a33.177 33.177 0 0 1-4.166 16.149m-7.671-42.081A20.74 20.74 0 0 0 175 62.5c0-11.506-9.328-20.833-20.833-20.833a20.74 20.74 0 0 0-12.502 4.166"/>
  <path stroke="#000" stroke-linecap="round" stroke-linejoin="round" stroke-width="8" d="M100 37.5c0-11.506 9.328-20.833 20.833-20.833 11.506 0 20.834 9.327 20.834 20.833 0 3.175-.71 6.185-1.981 8.878m-23.019 136.955c-9.205 0-16.667-7.461-16.667-16.666m70.833 4.166 12.5 12.5m-50-29.166c0 11.505 9.328 20.833 20.834 20.833 5.763 0 10.979-2.34 14.75-6.122A20.764 20.764 0 0 0 175 154.167c0-11.506-9.328-20.834-20.833-20.834-11.506 0-20.834 9.328-20.834 20.834Z"/>
</svg>
