<svg xmlns="http://www.w3.org/2000/svg" width="542" height="200" fill="none" viewBox="0 0 542 200">
  <path stroke="#000" stroke-linecap="round" stroke-linejoin="round" stroke-width="8" d="M58.333 116.667c-13.807 0-25 11.192-25 25 0 13.807 11.193 25 25 25 2.922 0 5.727-.502 8.334-1.423"/>
  <path stroke="#000" stroke-linecap="round" stroke-linejoin="round" stroke-width="8" d="M35.533 130.038C24.369 124.652 16.667 113.225 16.667 100c0-10.097 4.49-19.146 11.581-25.258m.256-.674A20.736 20.736 0 0 1 25 62.5c0-11.506 9.327-20.833 20.833-20.833 4.691 0 9.02 1.55 12.502 4.166m1.979.545a20.753 20.753 0 0 1-1.98-8.878c0-11.506 9.327-20.833 20.833-20.833C90.672 16.667 100 25.994 100 37.5v129.167m-33.333 0c0 9.205 7.462 16.666 16.666 16.666 9.205 0 16.667-7.461 16.667-16.666m0-108.334c0 13.807 11.192 25 25 25m46.752-8.591c7.091 6.112 11.581 15.16 11.581 25.258a33.177 33.177 0 0 1-4.166 16.149m-7.671-42.081A20.74 20.74 0 0 0 175 62.5c0-11.506-9.328-20.833-20.833-20.833a20.74 20.74 0 0 0-12.502 4.166"/>
  <path stroke="#000" stroke-linecap="round" stroke-linejoin="round" stroke-width="8" d="M100 37.5c0-11.506 9.328-20.833 20.833-20.833 11.506 0 20.834 9.327 20.834 20.833 0 3.175-.71 6.185-1.981 8.878m-23.019 136.955c-9.205 0-16.667-7.461-16.667-16.666m70.833 4.166 12.5 12.5m-50-29.166c0 11.505 9.328 20.833 20.834 20.833 5.763 0 10.979-2.34 14.75-6.122A20.764 20.764 0 0 0 175 154.167c0-11.506-9.328-20.834-20.833-20.834-11.506 0-20.834 9.328-20.834 20.834Z"/>
  <path fill="#000" d="m250.375 91.375 27.375-32h22.188l-38.563 44.937L299.688 149h-22.063l-27.25-31.75L223.25 149h-22.125l38.25-44.688L201 59.375h22l27.375 32ZM404.125 149h-23.063L344.5 112.375h-11.438V96H344.5l36.562-36.625h23.063l-46.063 44.813L404.125 149Zm-77.563 0h-16.25V59.375h16.25V149Zm177.188-19.688c0 2-.354 4.146-1.062 6.438-.667 2.292-1.792 4.417-3.376 6.375-1.541 1.958-3.562 3.604-6.062 4.937-2.5 1.292-5.562 1.938-9.188 1.938h-61.687c-1.167 0-2.25-.208-3.25-.625a8.612 8.612 0 0 1-2.625-1.687 8.619 8.619 0 0 1-1.688-2.626c-.416-1-.624-2.083-.624-3.25v-73.25c0-1.124.208-2.187.624-3.187.417-1 .98-1.875 1.688-2.625a8.053 8.053 0 0 1 2.625-1.75c1-.417 2.083-.625 3.25-.625h54.375c2 0 4.146.354 6.438 1.063 2.291.708 4.416 1.854 6.374 3.437 2 1.542 3.646 3.563 4.938 6.063 1.333 2.5 2 5.562 2 9.187v3.063c0 2.874-.479 5.979-1.438 9.312-.958 3.292-2.5 6.417-4.624 9.375a27.773 27.773 0 0 1 5.124 4.063c1.626 1.583 3.042 3.416 4.25 5.5 1.209 2.083 2.167 4.437 2.876 7.062.708 2.625 1.062 5.521 1.062 8.688v3.124Zm-16.25-3.124c0-2.126-.333-4.021-1-5.688-.667-1.708-1.604-3.167-2.812-4.375-1.209-1.208-2.667-2.125-4.376-2.75-1.708-.667-3.624-1-5.75-1h-36.624V96h29.312c2.125 0 4.042-.313 5.75-.938 1.708-.666 3.167-1.604 4.375-2.812 1.208-1.208 2.125-2.646 2.75-4.313.667-1.708 1-3.624 1-5.75v-3.062c0-2.333-1.125-3.5-3.375-3.5h-46.312v57.125h53.624c.292 0 .646-.021 1.063-.062a2.569 2.569 0 0 0 1.125-.376c.333-.208.625-.562.875-1.062s.375-1.188.375-2.062v-3Z"/>
</svg>
