<?xml version="1.0" standalone="no"?>
<!DOCTYPE svg PUBLIC "-//W3C//DTD SVG 20010904//EN"
 "http://www.w3.org/TR/2001/REC-SVG-20010904/DTD/svg10.dtd">
<svg version="1.0" xmlns="http://www.w3.org/2000/svg"
 width="512.000000pt" height="512.000000pt" viewBox="0 0 512.000000 512.000000"
 preserveAspectRatio="xMidYMid meet">

<g transform="translate(0.000000,512.000000) scale(0.100000,-0.100000)"
fill="currentColor" stroke="none">
<path d="M485 5101 c-121 -30 -200 -76 -295 -171 -88 -88 -131 -158 -168 -272
-26 -82 -23 -263 5 -353 66 -208 249 -381 454 -430 138 -32 327 -11 435 49
l42 23 333 -333 334 -334 -18 -27 c-43 -68 -99 -190 -124 -270 -24 -80 -27
-103 -27 -258 -1 -148 2 -180 22 -250 32 -112 112 -268 177 -345 30 -36 57
-70 61 -76 8 -18 -354 -509 -374 -507 -9 0 -42 9 -72 17 -72 22 -236 22 -314
1 -90 -24 -209 -91 -275 -154 -259 -250 -265 -650 -12 -901 155 -154 354 -217
562 -176 365 71 588 434 489 796 -14 53 -51 128 -92 188 -17 24 -26 47 -22 55
6 9 350 485 359 495 1 1 28 -9 59 -23 122 -54 208 -70 376 -70 117 0 171 4
220 18 106 29 192 65 266 111 l69 43 496 -494 495 -494 -28 -57 c-40 -83 -58
-164 -58 -267 0 -175 61 -325 180 -444 199 -200 485 -246 740 -119 89 45 223
179 268 268 127 255 81 541 -119 741 -76 75 -191 140 -290 164 -137 32 -333
10 -434 -49 l-40 -23 -496 494 -496 495 43 71 c85 137 124 273 131 452 4 106
1 148 -15 225 -11 52 -23 102 -26 110 -5 12 79 61 354 209 l360 193 57 -53
c115 -104 304 -168 458 -153 158 15 285 74 396 184 251 249 251 641 0 890
-129 128 -264 184 -446 184 -241 -1 -454 -133 -560 -349 -55 -111 -68 -180
-62 -322 l5 -122 -354 -190 -355 -191 -61 66 c-120 127 -267 219 -433 270 -84
26 -102 28 -265 28 -162 0 -182 -2 -263 -27 -80 -25 -202 -81 -270 -124 l-27
-18 -334 334 -333 333 23 42 c60 108 81 297 49 435 -78 330 -430 544 -760 462z"/>
</g>
</svg>
