<?xml version="1.0" standalone="no"?>
<!DOCTYPE svg PUBLIC "-//W3C//DTD SVG 20010904//EN" "http://www.w3.org/TR/2001/REC-SVG-20010904/DTD/svg10.dtd">
<svg version="1.0" xmlns="http://www.w3.org/2000/svg" width="512.000000pt" height="512.000000pt" viewBox="0 0 512.000000 512.000000" preserveAspectRatio="xMidYMid meet">

  <g transform="translate(0.000000,512.000000) scale(0.100000,-0.100000)" fill="currentColor" stroke="none">
    <path d="M2083 4826 c-104 -33 -204 -120 -253 -221 -46 -92 -52 -174 -48 -592
5 -416 7 -426 81 -535 49 -72 139 -138 220 -164 33 -10 106 -18 200 -21 l147
-6 0 -131 0 -131 -49 -18 c-110 -39 -219 -147 -267 -265 l-23 -57 -181 -3
-180 -2 -11 27 c-76 208 -249 333 -459 333 -195 0 -362 -108 -442 -287 l-33
-73 -218 0 -219 0 -34 -34 c-30 -30 -34 -40 -34 -85 0 -41 5 -56 28 -81 38
-43 77 -49 293 -50 l187 0 35 -72 c19 -40 52 -93 73 -117 44 -51 140 -116 196
-133 l38 -11 0 -134 0 -133 -107 0 c-146 0 -222 -13 -298 -49 -119 -55 -209
-175 -235 -310 -13 -71 -13 -771 0 -842 36 -187 181 -324 370 -349 96 -12 702
-12 796 0 96 12 173 48 239 111 61 58 94 109 119 185 15 46 16 102 14 495 l-3
444 -32 66 c-39 79 -130 169 -205 204 -67 30 -161 45 -300 45 l-108 0 0 130
c0 116 2 131 18 136 120 40 237 138 290 247 18 35 32 70 32 76 0 8 55 11 188
11 l187 0 18 -50 c26 -73 102 -167 175 -217 211 -144 500 -97 654 105 26 34
55 85 65 112 l18 50 185 0 185 0 18 -49 c38 -109 149 -220 265 -267 l57 -23 3
-130 3 -131 -108 0 c-148 0 -237 -15 -308 -50 -79 -38 -158 -118 -198 -200
l-32 -65 0 -465 0 -465 32 -66 c40 -82 130 -170 209 -205 31 -14 89 -29 128
-34 94 -12 700 -12 796 0 191 25 339 167 370 356 13 77 13 751 0 828 -22 138
-113 260 -235 317 -76 36 -152 49 -297 49 l-108 0 0 133 0 134 38 11 c56 17
152 82 196 133 21 24 54 77 73 117 l35 72 187 0 c216 1 255 7 294 50 22 25 27
40 27 81 0 45 -4 55 -34 85 l-34 34 -219 0 -218 0 -33 73 c-80 179 -247 287
-442 287 -210 0 -383 -125 -459 -333 l-11 -27 -180 2 -181 3 -24 58 c-47 117
-145 215 -263 263 l-57 23 -3 129 -3 129 153 6 c100 3 171 11 205 21 81 26
171 92 220 164 74 108 76 120 81 528 5 417 -3 508 -48 600 -39 79 -117 156
-199 197 l-66 32 -450 2 c-352 2 -459 -1 -492 -11z m918 -259 c48 -32 77 -80
84 -140 4 -29 5 -209 3 -402 -3 -308 -5 -354 -20 -381 -23 -43 -71 -81 -116
-94 -50 -13 -734 -13 -784 0 -45 13 -93 51 -116 94 -15 27 -17 73 -20 381 -2
193 -1 373 3 402 7 60 36 108 84 140 34 23 34 23 441 23 407 0 407 0 441 -23z
m-1653 -1793 c85 -35 142 -120 142 -214 0 -176 -183 -285 -341 -202 -77 40
-119 111 -119 199 0 100 46 173 135 214 49 23 133 24 183 3z m1300 0 c85 -35
142 -120 142 -214 0 -129 -101 -230 -230 -230 -202 0 -306 242 -167 389 64 67
171 90 255 55z m1323 -12 c161 -83 161 -321 0 -404 -157 -82 -340 25 -341 200
-1 178 182 287 341 204z m-2318 -1193 c45 -12 100 -58 116 -97 8 -20 11 -143
9 -434 -3 -395 -4 -407 -24 -435 -11 -15 -36 -38 -54 -51 -33 -22 -34 -22
-437 -22 -442 0 -435 -1 -486 60 -15 17 -31 47 -37 68 -14 51 -13 730 1 786
13 52 60 102 115 121 49 18 736 21 797 4z m2602 0 c51 -14 110 -73 124 -124
14 -52 15 -735 1 -787 -6 -21 -22 -51 -37 -68 -51 -61 -44 -60 -486 -60 -403
0 -404 0 -437 22 -18 13 -43 36 -54 51 -20 28 -21 40 -24 435 -2 280 1 415 8
433 16 38 61 78 106 94 50 18 737 21 799 4z" />
  </g>
</svg>