<?xml version="1.0" standalone="no"?>
<!DOCTYPE svg PUBLIC "-//W3C//DTD SVG 20010904//EN"
 "http://www.w3.org/TR/2001/REC-SVG-20010904/DTD/svg10.dtd">
<svg version="1.0" xmlns="http://www.w3.org/2000/svg"
 width="512.000000pt" height="512.000000pt" viewBox="0 0 512.000000 512.000000"
 preserveAspectRatio="xMidYMid meet">

<g transform="translate(0.000000,512.000000) scale(0.100000,-0.100000)"
fill="currentColor" stroke="none">
<path d="M1728 5001 c-156 -50 -277 -188 -308 -350 -14 -73 -13 -675 1 -743
37 -178 187 -325 363 -357 39 -7 307 -11 780 -11 608 0 731 3 785 15 168 40
292 162 336 332 22 85 22 713 -1 798 -27 106 -111 219 -202 272 -87 51 -149
63 -334 63 -97 0 -178 -4 -189 -10 -24 -13 -49 -61 -49 -94 0 -14 13 -40 29
-58 l29 -33 179 -5 c166 -5 181 -7 223 -30 52 -29 105 -95 120 -148 14 -54 13
-673 -2 -724 -15 -50 -78 -122 -132 -151 l-41 -22 -734 -3 c-643 -2 -740 -1
-788 13 -62 18 -124 69 -156 129 -21 39 -22 54 -25 371 -2 219 0 344 8 374 16
62 63 126 118 158 46 27 51 28 239 33 185 5 192 6 217 29 48 45 40 132 -13
161 -12 6 -97 10 -208 9 -154 0 -198 -3 -245 -18z"/>
<path d="M2509 4991 c-31 -32 -39 -84 -18 -123 17 -32 74 -51 115 -38 44 15
64 45 64 96 0 85 -100 125 -161 65z"/>
<path d="M4240 4694 c-37 -25 -258 -243 -291 -288 -21 -28 -29 -50 -29 -79 0
-39 6 -47 158 -198 97 -97 168 -160 185 -164 76 -19 141 46 123 121 -4 15 -32
53 -63 85 l-56 59 269 0 c153 0 285 5 306 10 78 22 103 106 49 161 l-29 29
-296 0 c-163 0 -296 4 -296 8 0 4 21 28 46 52 50 49 74 88 74 119 0 77 -88
126 -150 85z"/>
<path d="M1939 4351 c-52 -53 -33 -135 38 -162 14 -5 261 -9 589 -9 620 0 607
-1 639 60 8 16 15 34 15 40 0 27 -33 78 -56 89 -18 8 -194 11 -610 11 l-586 0
-29 -29z"/>
<path d="M687 4359 c-313 -42 -570 -266 -659 -576 -22 -73 -23 -96 -23 -378 0
-338 4 -362 76 -512 126 -263 406 -443 688 -443 45 0 81 -3 81 -7 0 -3 -27
-34 -60 -69 -51 -53 -60 -68 -60 -99 0 -47 13 -71 52 -91 59 -31 80 -17 256
159 216 218 216 187 -6 409 -158 158 -170 168 -206 168 -54 0 -96 -43 -96
-100 0 -37 6 -48 62 -106 l61 -64 -74 0 c-155 0 -283 55 -399 170 -87 86 -131
162 -160 276 -17 66 -20 111 -20 304 0 124 5 253 11 286 38 210 214 398 429
460 39 11 123 18 283 23 l229 6 24 28 c34 40 32 88 -5 129 l-29 33 -194 2
c-106 0 -224 -3 -261 -8z"/>
<path d="M1750 3282 c-36 -9 -85 -29 -110 -44 -61 -35 -141 -117 -173 -176
-50 -93 -57 -148 -57 -498 0 -177 5 -345 10 -375 27 -143 121 -262 257 -327
l78 -37 774 -3 c675 -2 781 -1 835 13 152 39 281 167 320 320 22 81 23 723 2
800 -45 170 -187 304 -355 335 -33 6 -335 10 -785 9 -654 0 -738 -2 -796 -17z
m1618 -217 c56 -30 100 -83 120 -144 15 -44 16 -670 2 -723 -16 -57 -69 -119
-129 -150 l-53 -28 -747 0 c-581 1 -754 4 -782 14 -56 20 -103 61 -135 118
l-29 53 0 355 c0 327 1 358 19 390 37 71 102 124 171 141 17 4 363 6 770 6
l740 -2 53 -30z"/>
<path d="M1965 2649 c-62 -35 -74 -111 -26 -160 l29 -29 367 0 c402 0 411 1
435 59 16 39 5 82 -26 112 l-26 24 -366 2 c-256 2 -373 -1 -387 -8z"/>
<path d="M3073 2646 c-61 -28 -74 -107 -24 -157 40 -40 89 -40 133 0 85 76 -4
204 -109 157z"/>
<path d="M3971 2647 c-57 -33 -68 -112 -22 -158 l29 -29 199 0 c233 0 302 -12
418 -69 136 -67 243 -190 296 -341 21 -60 23 -85 27 -318 3 -209 1 -266 -13
-328 -60 -268 -299 -463 -569 -464 l-68 0 61 65 c54 58 61 70 61 106 0 75 -76
122 -143 88 -31 -16 -296 -279 -313 -311 -8 -15 -14 -42 -14 -59 0 -29 19 -52
157 -190 86 -87 169 -163 184 -169 21 -9 36 -9 63 0 42 14 66 48 66 96 0 30
-9 45 -60 98 -33 35 -60 66 -60 69 0 4 33 7 74 7 132 0 270 39 394 111 80 48
220 189 270 274 96 163 115 272 110 620 -4 232 -7 268 -27 335 -64 214 -207
389 -402 490 -135 70 -200 82 -464 87 -183 3 -235 1 -254 -10z"/>
<path d="M1770 1566 c-170 -36 -313 -181 -349 -354 -14 -68 -15 -670 -1 -743
31 -164 153 -301 311 -350 57 -18 103 -19 824 -19 719 0 767 1 824 19 113 35
203 107 264 211 52 89 57 134 57 505 0 369 -4 404 -56 507 -32 63 -112 143
-180 180 -106 57 -112 58 -909 57 -526 0 -745 -4 -785 -13z m1586 -213 c50
-27 97 -75 121 -122 16 -32 18 -72 21 -374 2 -216 -1 -351 -8 -377 -16 -60
-68 -121 -129 -152 l-55 -28 -751 0 -751 0 -53 26 c-64 32 -116 98 -131 169
-8 33 -11 160 -8 375 3 311 4 327 25 365 32 59 85 105 145 126 50 18 95 19
793 16 738 -2 740 -2 781 -24z"/>
<path d="M1939 901 c-40 -40 -40 -89 0 -133 l29 -33 576 -3 c636 -3 629 -3
661 59 14 27 15 39 6 70 -22 72 8 69 -651 69 l-592 0 -29 -29z"/>
<path d="M525 1198 c-28 -15 -261 -245 -296 -292 -19 -26 -29 -51 -29 -74 0
-32 14 -50 157 -193 86 -87 169 -163 184 -169 21 -9 36 -9 63 0 42 14 66 48
66 96 0 30 -9 45 -60 98 -33 35 -60 66 -60 69 0 4 133 7 296 7 l296 0 29 29
c31 31 39 83 19 122 -25 45 -51 49 -356 49 l-286 0 61 65 c54 58 61 70 61 106
0 75 -80 123 -145 87z"/>
</g>
</svg>
