<?xml version="1.0" standalone="no"?>
<!DOCTYPE svg PUBLIC "-//W3C//DTD SVG 20010904//EN"
 "http://www.w3.org/TR/2001/REC-SVG-20010904/DTD/svg10.dtd">
<svg version="1.0" xmlns="http://www.w3.org/2000/svg"
 width="512.000000pt" height="512.000000pt" viewBox="0 0 512.000000 512.000000"
 preserveAspectRatio="xMidYMid meet">

<g transform="translate(0.000000,512.000000) scale(0.100000,-0.100000)"
fill="currentColor" stroke="none">
<path d="M2154 4836 c-18 -14 -19 -33 -24 -362 l-5 -347 -330 -198 c-181 -109
-345 -210 -362 -224 l-33 -26 0 -304 0 -304 -48 -21 c-61 -26 -124 -90 -154
-155 -18 -40 -23 -66 -22 -131 l1 -81 -214 -128 c-185 -111 -216 -127 -236
-118 -12 6 -143 83 -291 172 -148 88 -277 161 -288 161 -27 0 -68 -44 -68 -74
0 -35 24 -52 323 -231 l267 -160 0 -420 c0 -315 3 -426 13 -445 8 -16 128 -93
364 -235 l352 -210 1 -341 0 -341 23 -21 c30 -28 68 -28 95 1 21 23 22 30 24
362 l3 339 344 207 c190 113 353 216 363 229 17 21 18 52 18 449 l1 426 219
131 218 132 47 -33 c106 -76 267 -69 360 15 20 18 26 15 270 -132 164 -98 257
-148 271 -145 11 2 177 97 368 212 302 181 350 206 369 198 12 -6 143 -83 291
-172 148 -88 277 -161 288 -161 27 0 68 44 68 74 0 14 -11 34 -28 48 -15 13
-148 95 -295 183 l-267 160 0 420 c0 318 -3 426 -13 445 -9 17 -125 92 -364
235 l-352 210 0 341 -1 341 -23 21 c-30 28 -68 28 -95 -1 -21 -23 -22 -30 -24
-362 l-3 -338 -320 -194 c-176 -106 -327 -192 -335 -191 -8 2 -158 89 -332
193 l-317 190 -1 338 0 338 -25 24 c-27 28 -62 32 -91 11z m379 -1031 l316
-190 1 -272 0 -272 -44 -19 c-109 -49 -177 -151 -177 -268 0 -39 1 -76 3 -83
3 -12 -411 -271 -435 -271 -6 0 -107 57 -223 127 l-210 128 0 85 c1 69 -4 94
-22 132 -32 64 -86 116 -149 145 l-53 25 2 271 3 271 320 193 c176 106 327
192 336 190 9 -1 159 -87 332 -192z m1452 -1 l325 -195 0 -394 0 -394 -326
-196 c-179 -108 -332 -195 -339 -193 -8 2 -107 59 -222 127 l-208 125 0 90 c0
82 -3 96 -30 145 -33 61 -90 111 -153 136 l-42 17 2 270 3 271 320 192 c176
107 326 194 332 194 7 1 159 -87 338 -195z m-2429 -896 c119 -81 79 -257 -64
-284 -42 -8 -115 19 -142 53 -51 65 -46 155 12 210 40 38 50 41 112 42 36 1
59 -5 82 -21z m1451 2 c37 -22 73 -86 73 -130 0 -103 -106 -183 -203 -151 -18
6 -49 27 -67 46 -29 30 -34 43 -37 92 -5 68 16 111 69 143 44 26 122 27 165 0z
m-1624 -415 c92 -27 188 -11 264 44 l40 29 219 -133 219 -133 0 -397 0 -397
-320 -194 c-176 -106 -325 -194 -332 -194 -6 0 -158 88 -337 196 l-326 195 0
394 0 394 223 134 222 133 39 -28 c22 -15 62 -35 89 -43z"/>
<path d="M1980 3620 c-214 -129 -250 -156 -250 -190 0 -29 39 -70 67 -70 29 0
436 239 471 277 12 13 22 34 22 47 0 29 -40 66 -71 66 -13 -1 -121 -59 -239
-130z"/>
<path d="M3605 3760 c-44 -17 -62 -72 -35 -105 24 -29 478 -295 503 -295 28 0
67 41 67 71 0 33 -44 66 -256 193 -233 139 -250 147 -279 136z"/>
<path d="M1040 2180 c-19 -19 -20 -33 -20 -289 0 -256 1 -269 21 -295 25 -32
70 -35 99 -6 19 19 20 33 20 293 0 230 -2 276 -16 295 -20 29 -76 30 -104 2z"/>
</g>
</svg>
