<?xml version="1.0" standalone="no"?>
<!DOCTYPE svg PUBLIC "-//W3C//DTD SVG 20010904//EN"
 "http://www.w3.org/TR/2001/REC-SVG-20010904/DTD/svg10.dtd">
<svg version="1.0" xmlns="http://www.w3.org/2000/svg"
 width="512.000000pt" height="512.000000pt" viewBox="0 0 512.000000 512.000000"
 preserveAspectRatio="xMidYMid meet">

<g transform="translate(0.000000,512.000000) scale(0.100000,-0.100000)"
fill="currentColor" stroke="none">
<path d="M2425 5109 c-289 -54 -531 -260 -619 -528 -80 -244 -51 -489 83 -693
208 -317 591 -445 948 -316 212 77 402 269 475 481 l23 68 425 -3 425 -3 38
-24 c21 -13 50 -42 65 -64 l27 -40 3 -312 3 -312 -68 -6 c-318 -30 -598 -249
-689 -539 l-18 -58 -985 0 -986 0 -23 68 c-73 211 -263 403 -474 480 -358 129
-742 2 -948 -315 -89 -136 -125 -259 -125 -433 0 -128 10 -184 54 -301 46
-122 182 -289 293 -360 l48 -31 0 -367 c0 -411 6 -458 72 -584 42 -81 164
-203 245 -245 129 -68 167 -72 643 -72 l426 0 22 -67 c31 -98 86 -186 172
-277 135 -142 294 -224 486 -248 166 -21 357 18 500 103 87 51 218 181 273
270 26 42 58 109 71 148 l25 71 548 0 549 0 -46 -51 c-52 -58 -71 -112 -62
-178 8 -57 39 -106 89 -139 54 -36 154 -38 207 -5 19 12 134 122 256 245 197
199 222 228 234 270 15 56 7 119 -20 163 -10 16 -119 130 -242 251 -195 194
-229 224 -268 234 -123 33 -240 -41 -256 -161 -9 -66 10 -120 62 -178 l46 -51
-549 0 -548 0 -23 67 c-71 207 -260 402 -463 477 -194 72 -379 73 -571 3 -214
-78 -403 -271 -470 -480 l-22 -68 -426 3 -425 3 -38 24 c-21 13 -50 42 -65 64
l-27 40 -3 312 -3 311 95 12 c186 23 346 103 477 239 84 87 146 184 181 286
l23 67 985 0 986 0 22 -68 c65 -203 264 -404 475 -480 357 -129 740 -1 948
316 88 134 124 258 124 432 0 129 -10 183 -55 302 -45 122 -173 279 -287 356
l-53 35 0 367 c0 410 -6 457 -72 583 -42 81 -164 203 -245 245 -129 68 -167
72 -642 72 l-426 0 -23 68 c-71 206 -260 401 -463 476 -139 52 -296 68 -424
45z m299 -427 c91 -42 149 -100 194 -190 35 -72 37 -81 37 -172 0 -91 -2 -100
-37 -172 -45 -91 -103 -147 -196 -191 -61 -29 -76 -32 -162 -32 -86 0 -101 3
-162 32 -93 44 -151 100 -196 191 -35 72 -37 81 -37 171 0 87 3 102 32 163 40
85 97 147 172 186 78 42 122 52 213 48 61 -3 92 -11 142 -34z m-1760 -1760
c91 -42 149 -100 194 -190 35 -72 37 -81 37 -172 0 -91 -2 -100 -37 -172 -45
-91 -103 -147 -196 -191 -61 -29 -76 -32 -162 -32 -86 0 -101 3 -162 32 -93
44 -151 100 -196 191 -35 72 -37 81 -37 171 0 87 3 102 32 163 40 85 97 147
172 186 78 42 122 52 213 48 61 -3 92 -11 142 -34z m3520 0 c91 -42 149 -100
194 -190 35 -72 37 -81 37 -172 0 -91 -2 -100 -37 -172 -45 -91 -103 -147
-196 -191 -61 -29 -76 -32 -162 -32 -86 0 -101 3 -162 32 -93 44 -151 100
-196 191 -35 72 -37 81 -37 171 0 87 3 102 32 163 40 85 97 147 172 186 78 42
122 52 213 48 61 -3 92 -11 142 -34z m-1760 -1760 c91 -42 149 -100 194 -190
35 -72 37 -81 37 -172 0 -91 -2 -100 -37 -172 -45 -91 -103 -147 -196 -191
-61 -29 -76 -32 -162 -32 -86 0 -101 3 -160 31 -95 46 -153 101 -197 192 -36
72 -38 81 -38 171 0 87 3 102 32 163 40 85 97 147 172 186 78 42 122 52 213
48 61 -3 92 -11 142 -34z"/>
<path d="M892 4909 c-45 -13 -108 -80 -121 -126 -23 -82 -7 -143 55 -212 l45
-50 -369 -3 -368 -3 -41 -27 c-63 -41 -88 -90 -88 -169 0 -54 5 -72 27 -106
15 -22 44 -51 65 -64 38 -24 39 -24 406 -27 l368 -3 -45 -50 c-52 -58 -71
-113 -62 -178 16 -120 133 -194 256 -161 39 10 73 40 268 234 123 121 232 235
243 252 26 42 34 109 19 164 -10 39 -40 73 -234 268 -121 123 -236 232 -253
243 -38 24 -124 33 -171 18z"/>
</g>
</svg>
