<?xml version="1.0" encoding="UTF-8" standalone="no"?>
<!DOCTYPE svg PUBLIC "-//W3C//DTD SVG 1.1//EN" "http://www.w3.org/Graphics/SVG/1.1/DTD/svg11.dtd">
<svg width="100%" height="100%" viewBox="0 0 474 527" version="1.1" xmlns="http://www.w3.org/2000/svg" xmlns:xlink="http://www.w3.org/1999/xlink" xml:space="preserve" xmlns:serif="http://www.serif.com/" style="fill-rule:evenodd;clip-rule:evenodd;stroke-linejoin:round;stroke-miterlimit:2;">
    <g id="Artboard1" transform="matrix(1,0,0,0.999304,0.559214,-0.00113914)">
        <rect x="-0.559" y="0.001" width="473.169" height="526.855" style="fill:none;"/>
        <clipPath id="_clip1">
            <rect x="-0.559" y="0.001" width="473.169" height="526.855"/>
        </clipPath>
        <g clip-path="url(#_clip1)">
            <g transform="matrix(1,0,0,1.0007,-584.569,-740.554)">
                <path d="M880.078,1228.05C874.486,1234.71 869.735,1241.23 864.04,1246.78C837.8,1272.35 802.903,1272.21 776.574,1246.79C759.904,1230.69 749.317,1210.7 740.604,1189.67C726.087,1154.62 718.828,1117.77 714.1,1080.3C710.84,1054.46 709.439,1028.55 709.759,1002.53C709.783,1000.63 709.486,998.721 709.173,994.688C704.683,998.085 701.149,1000.26 698.214,1003.07C689.063,1011.82 680.282,1020.96 671.058,1029.63C667.01,1033.44 667.346,1037.66 667.837,1042.43C669.654,1060.13 662.756,1073.67 647.494,1082.68C643.84,1084.84 639.549,1086.21 635.371,1087.1C631.116,1088.01 629.192,1090.45 628.145,1094.27C623.939,1109.6 629.257,1120.21 644.772,1123.93C654.339,1126.23 664.475,1126.58 674.385,1126.9C682.249,1127.16 690.158,1126.05 698.418,1125.53C701.856,1138.65 705.034,1150.8 708.1,1162.5C707.209,1163.59 706.866,1164.44 706.385,1164.53C681.216,1169.07 656.086,1170.06 631.292,1162.49C595.8,1151.65 579.354,1121.66 589.25,1085C591.668,1076.05 592.197,1068.5 588.735,1059.27C579.1,1033.55 599.535,1006.18 627.507,1006.4C634.46,1006.46 639.155,1004.62 643.928,999.603C677.269,964.571 716.326,936.837 757.406,911.754C761.67,909.151 765.959,906.59 770.222,903.987C770.482,903.828 770.614,903.461 771.278,902.526C769.005,901.387 766.918,899.999 764.624,899.244C741.531,891.646 718.45,883.746 694.189,880.908C677.355,878.939 660.288,877.223 643.58,882.121C628.663,886.494 623.932,894.953 627.578,910.105C630.911,923.957 638.116,935.931 646.133,947.478C648.211,950.469 650.369,953.404 651.77,955.361C642.352,965.033 633.394,974.233 623.977,983.902C623.895,983.85 622.567,983.389 621.795,982.464C606.276,963.851 593.502,943.65 587.597,919.857C582.243,898.282 584.568,878.015 600.467,861.081C612.148,848.64 627.3,842.972 643.784,840.221C670.59,835.747 696.943,839.24 723.044,845.134C770.463,855.841 815.166,873.786 857.881,896.84C866.018,901.231 874.177,905.583 884.088,910.899C882.585,903.101 881.685,896.973 880.195,890.992C876.734,877.106 872.862,863.323 869.426,849.431C868.15,844.273 865.222,841.827 860.161,840.423C844.178,835.987 834.761,824.915 831.454,809.028C830.345,803.695 831.207,797.825 831.862,792.283C832.696,785.231 831.812,782.622 824.979,781.915C820.304,781.431 814.664,781.902 810.779,784.191C805.504,787.301 800.534,791.92 797.145,797.027C790.726,806.7 785.499,817.166 779.838,827.336C778.419,829.885 777.23,832.562 775.77,835.515C763.082,832.099 750.963,828.835 738.203,825.399C738.845,822.715 739.116,820.488 739.904,818.463C747.198,799.717 756.172,781.77 769.657,766.749C776.228,759.43 784.137,752.821 792.561,747.755C813.599,735.102 839.883,738.321 859.475,755.081C863.427,758.461 867.034,760.438 872.631,760.503C904.877,760.874 922.188,794.867 908.072,819.465C904.927,824.945 905.346,829.802 906.828,835.576C912.781,858.773 919.257,881.909 923.613,905.425C929.381,936.556 931.671,968.158 931.6,999.874C931.593,1002.85 931.599,1005.82 931.599,1009.73C933.849,1008.94 935.551,1008.78 936.635,1007.88C961.601,987.171 985.436,965.308 1002.07,937.007C1007.07,928.495 1011.54,919.215 1013.89,909.703C1017.79,893.904 1012.11,885.933 996.304,881.9C981.52,878.127 966.558,879.234 951.613,880.816C949.661,881.022 947.716,881.286 944.383,881.691C941.162,868.854 937.975,856.153 934.6,842.702C950.747,839.575 966.202,837.831 981.855,839.041C989.135,839.603 996.44,840.606 1003.58,842.141C1044.59,850.965 1064.12,883.604 1052.56,923.926C1046.3,945.776 1034.51,964.685 1020.34,982.136C993.458,1015.25 961.474,1042.89 926.627,1067.17C909.432,1079.16 891.293,1089.79 873.593,1101.05C872.511,1101.74 871.523,1102.58 869.616,1104C872.185,1105.32 873.985,1106.59 875.985,1107.21C889.012,1111.27 902.116,1115.09 915.119,1119.22C919.686,1120.67 923.047,1119.87 927.018,1116.93C945.848,1103.01 967.447,1104.87 983.737,1121.95C987.364,1125.75 990.501,1126.77 995.059,1125.11C996.623,1124.54 998.261,1124.18 999.829,1123.62C1012.33,1119.16 1016.27,1113.3 1014.22,1100.03C1013.27,1093.89 1011.31,1087.6 1008.41,1082.12C1002.37,1070.72 995.395,1059.81 988.476,1048.15C997.532,1039.57 1006.9,1030.7 1017.29,1020.85C1022.96,1028.62 1028.57,1035.53 1033.31,1042.99C1044.11,1059.98 1052.57,1077.81 1054.51,1098.4C1057.1,1125.79 1043.57,1146.42 1023.76,1156.28C1015.5,1160.4 1006.48,1163.59 997.451,1165.32C990.692,1166.62 986.283,1169.27 981.974,1174.47C970.017,1188.91 951.615,1193.82 935.135,1187.76C924.97,1184.02 917.399,1177.16 912.85,1167.39C910.664,1162.7 907.582,1160.58 902.586,1159.23C864.456,1148.94 828.5,1133.19 793.624,1114.85C782.169,1108.83 770.731,1102.77 758.123,1096.12C758.123,1099.14 757.764,1101.3 758.177,1103.31C764.021,1131.72 770.188,1160.08 783.447,1186.2C787.649,1194.47 792.69,1202.36 797.835,1210.1C800.187,1213.64 803.427,1216.77 806.779,1219.43C816.331,1227.01 826.176,1227.23 834.581,1218.48C841.875,1210.89 847.932,1201.98 853.713,1193.11C857.859,1186.75 860.648,1179.51 863.966,1172.81C871.963,1172.69 890.022,1177.59 902.257,1183.28C897.434,1199.14 889.365,1213.49 880.078,1228.05M801.692,1073.34C805.494,1075.4 809.453,1077.22 813.061,1079.58C818.169,1082.91 822.81,1082.42 827.907,1079.43C846.264,1068.67 864.7,1058.05 883.209,1047.55C888.371,1044.62 890.574,1040.78 890.482,1034.73C890.152,1013.14 890.058,991.545 890.282,969.954C890.339,964.456 888.021,961.345 883.644,958.849C864.584,947.982 845.532,937.101 826.568,926.069C822.045,923.438 818.063,923.441 813.54,926.112C794.932,937.101 776.261,947.986 757.485,958.685C752.264,961.66 750.103,965.562 750.168,971.582C750.396,992.54 750.432,1013.5 750.141,1034.46C750.051,1040.98 752.684,1044.98 758.131,1048.07C772.305,1056.1 786.334,1064.39 801.692,1073.34Z" style="fill:rgb(255,128,105);fill-rule:nonzero;"/>
            </g>
        </g>
    </g>
</svg>
