<svg xmlns="http://www.w3.org/2000/svg" version="1.1" id="Layer_1" x="0px" y="0px" enable-background="new 0 0 2946 1938" viewBox="1190 740.04 1190 525.87">
  <path fill="#FFFFFF" opacity="1.000000" stroke="none" d=" M1264.000122,1202.684692 C1251.006958,1202.681885 1239.003662,1202.368042 1227.022583,1202.748657 C1208.332031,1203.342163 1196.841064,1190.402222 1196.892456,1173.117310 C1197.099609,1103.489868 1196.874268,1033.861328 1197.056274,964.233765 C1197.105591,945.334290 1208.152954,934.440247 1227.031860,934.370850 C1274.005005,934.198120 1320.979736,934.403931 1367.953247,934.259033 C1381.052734,934.218628 1389.989136,940.490173 1396.924194,952.469360 C1399.505737,944.180420 1398.012573,936.716248 1398.242920,929.426636 C1398.495361,921.439758 1398.262329,913.437561 1398.240112,905.442017 C1398.218872,897.779663 1398.196655,890.117249 1398.174683,882.454895 C1398.151733,874.459351 1398.119995,866.463806 1398.107910,858.468262 C1398.096436,850.848816 1398.105469,843.229370 1398.105469,834.890076 C1421.169922,834.890076 1443.607788,834.890076 1466.696289,834.890076 C1466.696289,957.113037 1466.696289,1079.227661 1466.696289,1202.013550 C1444.165039,1202.013550 1421.668701,1202.013550 1398.497070,1202.013550 C1398.497070,1197.014771 1398.497070,1192.126099 1398.497070,1185.801514 C1396.502808,1187.279175 1395.331665,1187.740112 1394.808228,1188.596802 C1388.411377,1199.066162 1378.904541,1202.840332 1366.943481,1202.759399 C1332.963745,1202.529663 1298.981323,1202.682617 1264.000122,1202.684692 M1283.105347,1001.832092 C1277.606934,1001.967407 1272.108521,1002.102661 1266.730591,1002.234985 C1266.730591,1047.288940 1266.730591,1091.096191 1266.730591,1135.405029 C1269.552368,1135.579590 1271.810303,1135.838989 1274.068481,1135.840820 C1305.372192,1135.866943 1336.676514,1135.966553 1367.979492,1135.817017 C1387.324097,1135.724609 1397.956909,1124.817871 1398.020752,1105.168701 C1398.123657,1073.532349 1398.065918,1041.895386 1398.024658,1010.258667 C1398.021362,1007.706238 1397.622192,1005.154419 1397.342163,1001.832031 C1359.546387,1001.832031 1322.314453,1001.832031 1283.105347,1001.832092 z"/>
  <path fill="#FFFFFF" opacity="1.000000" stroke="none" d=" M2331.907959,934.315613 C2337.223145,934.332214 2341.565186,934.167419 2345.886230,934.397583 C2361.901611,935.250610 2372.541992,945.815857 2373.490234,961.699280 C2373.629150,964.024719 2373.550049,966.363831 2373.550293,968.696655 C2373.553955,1035.352783 2373.557373,1102.009033 2373.548340,1168.665161 C2373.547852,1171.662964 2373.642822,1174.682373 2373.336670,1177.654907 C2371.860840,1191.980225 2362.219482,1201.361328 2347.904297,1202.455322 C2344.918945,1202.683350 2341.910400,1202.663940 2338.912598,1202.664795 C2294.919434,1202.676514 2250.923828,1202.397705 2206.934814,1202.830688 C2192.816406,1202.969482 2181.205811,1199.778564 2172.614258,1186.705200 C2172.614258,1191.617676 2172.614258,1196.530151 2172.614258,1202.057617 C2149.208984,1202.057617 2127.025146,1202.057617 2104.793701,1202.057617 C2102.954346,1195.238647 2102.468018,846.147400 2104.382080,834.632263 C2126.510742,834.632263 2148.696777,834.632263 2171.634277,834.632263 C2171.634277,873.593933 2171.634277,912.101379 2171.634277,952.656860 C2174.013184,950.324280 2175.196777,949.501038 2175.937988,948.384155 C2182.605713,938.337585 2191.931396,934.164795 2203.946533,934.228882 C2246.271729,934.454529 2288.598877,934.315979 2331.907959,934.315613 M2172.492676,1024.565186 C2172.492676,1061.376953 2172.492676,1098.188599 2172.492676,1135.141235 C2216.805664,1135.141235 2260.187500,1135.141235 2303.486084,1135.141235 C2305.414551,1117.050903 2304.623779,1009.161743 2302.538574,1002.114563 C2300.959961,1002.024780 2299.314697,1001.850464 2297.669678,1001.849670 C2265.718750,1001.834167 2233.767822,1001.765320 2201.817139,1001.871338 C2186.471680,1001.922241 2178.427979,1007.922241 2172.492676,1024.565186 z"/>
  <path fill="#FFFFFF" opacity="1.000000" stroke="none" d=" M2038.681885,1074.014160 C2038.681519,1117.237183 2038.681519,1159.463135 2038.681519,1202.175293 C2015.511353,1202.175293 1993.325439,1202.175293 1970.000122,1202.175293 C1970.000122,1163.443481 1970.000122,1125.007202 1970.000122,1086.099487 C1966.347900,1085.804321 1963.782227,1085.421753 1961.215698,1085.416870 C1937.891113,1085.372559 1914.545410,1086.009766 1891.248047,1085.213867 C1870.226562,1084.495605 1859.428101,1100.443848 1859.941772,1117.073120 C1860.702759,1141.707031 1860.136597,1166.381836 1860.135376,1191.039307 C1860.135254,1194.349976 1860.135376,1197.660767 1860.135376,1202.068848 C1837.243408,1203.333496 1814.832153,1202.442017 1791.704834,1202.571777 C1791.704834,1079.601685 1791.704834,957.238037 1791.704834,834.611511 C1814.432007,834.611511 1836.637329,834.611511 1859.751953,834.611511 C1859.751953,894.836487 1859.751953,954.627747 1859.751953,1016.931580 C1863.005615,1013.447144 1864.837036,1011.856384 1866.224121,1009.943542 C1880.695068,989.984924 1895.354736,970.155090 1909.410156,949.906372 C1916.986572,938.991455 1926.964233,934.203125 1939.914429,934.287842 C1958.573242,934.409790 1977.233643,934.312195 1995.893311,934.331177 C1997.759155,934.333069 1999.624634,934.492920 2003.721191,934.682922 C1982.519531,962.838501 1962.427734,989.520142 1941.511597,1017.296448 C1945.108521,1017.666565 1947.532593,1018.125183 1949.957886,1018.132629 C1969.950195,1018.194336 1989.942993,1018.219421 2009.935303,1018.155273 C2019.546509,1018.124390 2027.382935,1021.467529 2033.371216,1029.200806 C2037.037354,1033.935059 2038.485840,1039.242065 2038.555420,1045.029541 C2038.667603,1054.357788 2038.646973,1063.687622 2038.681885,1074.014160 z"/>
  <path fill="#FFFFFF" opacity="1.000000" stroke="none" d=" M1725.998535,1202.676880 C1714.333496,1202.676147 1703.652344,1202.336792 1693.007690,1202.811035 C1687.246094,1203.067749 1683.925903,1200.827759 1680.757690,1196.299805 C1666.047363,1175.276367 1651.036987,1154.462646 1636.110352,1133.590576 C1634.192383,1130.908813 1632.136719,1128.325562 1629.523071,1124.876099 C1627.328125,1127.466309 1625.362671,1129.484375 1623.739746,1131.747925 C1608.399170,1153.143188 1592.978760,1174.484009 1577.921997,1196.078003 C1574.492554,1200.996704 1570.724365,1202.895996 1564.764771,1202.801270 C1544.437988,1202.478149 1524.102783,1202.698730 1503.770996,1202.650879 C1501.204224,1202.644775 1498.638184,1202.275757 1494.664307,1201.964600 C1526.833618,1157.178345 1558.263062,1113.422241 1589.989624,1069.252319 C1558.321777,1024.749023 1526.899658,980.591003 1494.677979,935.309326 C1498.154785,934.857544 1500.252075,934.356201 1502.351196,934.348328 C1519.349731,934.284668 1536.350220,934.452881 1553.347046,934.269226 C1566.367920,934.128601 1576.147705,938.966125 1583.607178,950.083679 C1596.042603,968.617310 1609.350952,986.565613 1622.312012,1004.745972 C1624.234253,1007.442383 1626.267090,1010.060181 1629.077026,1013.823975 C1631.395386,1010.872437 1633.429688,1008.509521 1635.216064,1005.971924 C1648.259888,987.442200 1661.570801,969.088684 1674.143921,950.243591 C1681.542725,939.153503 1691.323853,934.167480 1704.366821,934.273499 C1723.608276,934.429871 1742.852051,934.313782 1764.261353,934.313782 C1731.641846,980.167053 1700.085693,1024.525635 1668.256714,1069.267700 C1699.982178,1113.418701 1731.451050,1157.212769 1764.120239,1202.677246 C1750.683472,1202.677246 1738.840576,1202.677246 1725.998535,1202.676880 z"/>
</svg>