<svg xmlns="http://www.w3.org/2000/svg" width="233" height="127" fill="none" viewBox="0 0 233 127">
  <path fill="#015A94" stroke="#fff" d="M186.875 34.95c-3.023-6.01-6.645-10.955-11.713-16.025-8.055-8.065-17.677-13.594-28.553-16.41C140.428.916 132.904.2 126.813.616c-14.154.983-26.984 6.347-37.714 15.796l-.002.002-.949.826 1.469.888.003.002c2.704 1.661 6.012 4.147 8.428 6.369.963.876 1.486 1.331 1.792 1.534l.032.02a13.612 13.612 0 0 1 .545-.464c.331-.269.769-.611 1.235-.966l.002-.002c5.225-3.937 11.417-6.872 17.832-8.433v.001c4.224-1.036 5.832-1.207 11.485-1.207 4.776 0 5.249.034 7.784.478h.001c6.985 1.237 12.96 3.579 18.728 7.362 4.732 3.106 9.579 7.768 12.665 12.189l.001.002.828 1.195h8.547l7.982.015-.632-1.272Z"/>
  <path fill="#008A81" d="M43.989 4.063c0 .924.118 5.34.253 9.824.134 4.483.252 8.346.252 8.598 0 .386-.202.537-1.785 1.393-3.385 1.78-6.315 3.88-9.582 6.885l-1.684 1.545-9.6-3.409c-5.288-1.88-9.65-3.392-9.717-3.375-.05.017 2.712 3.694 6.164 8.161l6.282 8.127-.96 2.032c-1.752 3.661-3.015 7.557-3.621 11.184-.169.974-.387 1.847-.489 1.948-.1.1-4.563 1.46-9.902 3.022-5.355 1.562-9.667 2.889-9.6 2.94.068.066 3.908 1.225 8.54 2.585 4.63 1.344 9.026 2.636 9.784 2.872l1.364.403.202 1.393c.539 3.644 1.953 8.111 3.705 11.788l.977 2.032-6.282 8.128c-3.452 4.467-6.265 8.161-6.231 8.178.034.033 4.429-1.495 9.784-3.392l9.718-3.46 1.717 1.646c2.779 2.687 6.046 5.054 9.6 6.952l1.667.873-.118 2.704c-.185 5.021-.472 16.641-.421 17.212.067.52.471-.034 5.844-7.859 3.755-5.441 5.894-8.413 6.062-8.413.169 0 1.162.118 2.223.269 2.779.386 8.185.386 11.166 0 1.97-.269 2.374-.269 2.56-.084.117.134 2.745 3.929 5.826 8.43 5.187 7.573 5.625 8.161 5.693 7.64.05-.604-.253-13.921-.421-17.615l-.101-2.284 1.801-.957c3.42-1.797 6.501-4.013 9.617-6.902l1.684-1.561 9.666 3.425c5.305 1.881 9.684 3.409 9.701 3.376.033-.034-2.712-3.627-6.097-8.01-3.385-4.383-6.197-8.077-6.248-8.195-.05-.117.32-1.108.842-2.183 1.735-3.694 3.032-7.707 3.604-11.301.303-1.78.32-1.83.809-1.998.286-.084 4.681-1.377 9.767-2.855 5.103-1.495 9.313-2.77 9.381-2.838.067-.05-4.093-1.343-9.263-2.855-5.153-1.51-9.616-2.837-9.902-2.955-.472-.185-.539-.302-.64-1.108-.421-3.275-2.038-8.514-3.655-11.89-.538-1.141-.993-2.165-.993-2.266 0-.101 2.795-3.812 6.214-8.245 3.436-4.433 6.181-8.077 6.113-8.094-.067-.017-4.429 1.494-9.717 3.375l-9.6 3.409-1.599-1.511c-1.785-1.696-3.924-3.375-6.063-4.82-1.515-1.007-4.277-2.602-5.001-2.871l-.421-.151.1-2.402c.169-4.03.472-16.792.422-17.48-.068-.638-.186-.487-5.861 7.774l-5.81 8.447-.758-.1a127.38 127.38 0 0 0-2.122-.303c-2.223-.319-8.403-.269-10.93.1-1.178.169-2.223.236-2.29.152-.067-.067-2.644-3.795-5.726-8.279-3.065-4.483-5.658-8.211-5.742-8.312-.085-.084-.152.504-.152 1.511Zm109.718 36.859c-.051.085-.455.168-.893.168-.875 0-2.997.353-4.412.722-5.322 1.428-10.879 6.096-13.439 11.285-.455.923-.909 1.897-1.01 2.183-.337.907-.859 3.09-.977 4.114-.067.554-.185 1.058-.253 1.108-.185.118-.202 4.652-.017 4.853.085.101.236.773.354 1.511.303 1.932.775 3.493 1.448 4.904.32.672.59 1.26.59 1.31 0 .15 1.095 1.864 1.836 2.854 1.094 1.445 3.418 3.728 5.001 4.904 2.476 1.813 6.13 3.325 8.909 3.66.505.068.977.185 1.027.27.118.2 61.486.2 61.604 0 .051-.068.556-.186 1.112-.253 2.644-.302 6.77-2.049 9.211-3.912 1.499-1.142 4.11-3.812 5.12-5.256 1.903-2.704 3.385-6.684 3.638-9.79.05-.722.168-1.344.252-1.394.186-.118.169-2.384-.033-2.502-.085-.05-.169-.42-.169-.806 0-2.015-.859-5.172-2.071-7.59-1.6-3.19-4.177-6.213-7.09-8.296-2.863-2.065-6.922-3.593-10.172-3.828-.758-.05-1.432-.168-1.482-.252-.135-.202-57.949-.168-58.084.033Z"/>
  <path fill="#015A94" stroke="#fff" d="M120.077 124.71c6.245 1.082 13.72 1.166 20.001.25 19.93-2.915 37.474-15.51 46.714-33.603l.72-1.405h-7.987l-8.543.017-.441.653c-2.12 3.136-6.282 7.556-9.534 10.137l-.001.001c-5.615 4.444-12.892 7.937-19.571 9.398v.001c-4.133.899-5.568 1.035-10.632 1.035-4.988 0-7.187-.209-11.047-1.144l-.796-.198c-6.366-1.595-13.2-4.984-18.158-8.993l-1.072-.851-1.3 1.256-.003.001c-2.615 2.513-5.796 4.95-8.81 6.756l-.599.353-.882.514.703.65-.001.001c3.099 2.84 8.016 6.292 12.077 8.508 5.745 3.13 12.782 5.581 19.16 6.663h.002Z"/>
</svg>
