<svg xmlns="http://www.w3.org/2000/svg" width="822" height="156" fill="none" viewBox="0 0 822 156">
  <path fill="#015A94" stroke="#fff" d="M194.419 50.618c-3.023-6.01-6.645-10.955-11.713-16.025-8.055-8.065-17.677-13.595-28.553-16.41-6.181-1.6-13.705-2.315-19.796-1.9-14.154.983-26.984 6.347-37.714 15.796l-.002.002-.949.826 1.469.888.003.002c2.704 1.662 6.012 4.148 8.428 6.37.963.875 1.486 1.33 1.792 1.533l.032.02c.037-.035.082-.076.133-.12.105-.092.247-.21.412-.344.331-.268.769-.61 1.235-.966l.002-.002c5.225-3.937 11.417-6.871 17.832-8.432 4.224-1.035 5.832-1.206 11.485-1.206 4.776 0 5.249.033 7.784.477h.001c6.985 1.237 12.96 3.58 18.728 7.363 4.732 3.105 9.579 7.767 12.665 12.188l.001.002.828 1.195h8.547l7.982.016-.632-1.273Zm574.685 90.359c2.882.299 9.08.35 12.012.084h.001c12.195-1.083 24.124-5.881 33.578-13.524v-.001c1.116-.911 2.27-1.844 2.588-2.111l.094-.08-5.783-4.36-5.966-4.493-.491.364h-.001c-.34.269-1.152.836-2.018 1.422l-.881.591c-8.082 5.394-16.935 8.077-26.717 8.077-10.433 0-19.866-3.044-28.362-9.139l-.82-.599c-2.784-2.078-7.348-6.646-9.465-9.471-5.409-7.226-8.557-15.237-9.527-24.226-.13-1.228-.154-3.62-.103-5.963.044-2.048.146-4.106.294-5.356l.065-.483v-.002c2.226-13.62 9.466-25.132 20.584-32.723l.532-.358c6.04-4.021 12.289-6.448 19.733-7.65h.002c1.149-.183 3.509-.309 5.856-.36 2.349-.05 4.748-.026 5.979.103v.001c8.91.95 17.148 4.138 24.027 9.317h.001c.516.39 1.006.743 1.38.998.161.11.298.2.404.266.083-.057.188-.13.312-.22.343-.25.825-.61 1.4-1.044a430.43 430.43 0 0 0 4.171-3.206 416.2 416.2 0 0 0 4.129-3.246 87.36 87.36 0 0 0 1.348-1.094l.129-.11a14.578 14.578 0 0 0-.233-.214c-.37-.33-.887-.772-1.472-1.255-1.17-.969-2.593-2.095-3.608-2.833-8.754-6.347-19.18-10.363-29.989-11.529h-.001c-3.021-.332-7.943-.449-10.742-.266-19.599 1.283-37.309 11.511-48.237 27.822-14.522 21.679-13.988 49.96 1.203 71.018l.736.997c10.593 14.111 26.33 23.024 43.857 24.857l.001-.001Z"/>
  <path fill="#008A81" d="M251.096 79.612v62.635l32.554-.067c23.358-.05 33.075-.117 34.473-.269 5.743-.587 10.189-1.36 13.927-2.434 7.511-2.167 13.961-5.894 18.087-10.496 2.51-2.804 4.783-6.716 5.878-10.075 2.812-8.698 1.97-20.453-1.937-27.304-2.139-3.728-6.416-7.859-11.149-10.714-1.751-1.074-5.288-2.854-7.241-3.644l-1.381-.554 1.633-.99c7.815-4.736 12.749-11.738 14.281-20.202.354-2.031.506-7.422.253-9.756-.69-6.6-3.217-12.19-7.629-16.926-6.349-6.835-15.426-10.663-27.669-11.688-1.247-.1-13.827-.168-33.042-.168h-31.038v62.652Zm60.088-38.169c6.838 1.293 10.694 4.35 11.941 9.404.404 1.68.37 5.256-.085 6.935-1.111 4.148-3.89 6.734-8.959 8.346-4.16 1.31-5.103 1.377-21.758 1.377h-14.45V54.357c0-7.238.051-13.216.118-13.283.068-.067 7.141-.084 15.713-.05 15.106.067 15.628.084 17.48.42Zm1.466 49.067c6.753.37 10.946 1.73 13.91 4.5 2.897 2.704 4.008 5.626 3.806 10.042-.101 2.452-.387 3.644-1.263 5.441-.808 1.663-2.779 3.644-4.648 4.702-1.684.94-4.53 1.898-7.006 2.384-1.903.353-2.206.37-20.748.42l-18.828.067v-13.752c0-7.557.051-13.804.118-13.854.169-.185 31.442-.134 34.659.05Zm36.46-73.415c0 .084 11.384 28.429 25.312 63.02l25.312 62.871 12.209.05 12.21.034 25.345-62.904c13.927-34.608 25.362-62.987 25.379-63.055.034-.084-6.467-.15-14.82-.15H445.17l-16.403 44.096c-13.372 35.918-16.437 44.012-16.571 43.727-.084-.202-7.478-20.017-16.437-44.046l-16.251-43.694-15.208-.05c-8.353-.017-15.19.033-15.19.1Z"/>
  <path fill="#015A94" stroke="#fff" d="M528.851 141.848c26.837-.051 30.632-.085 32.835-.332l.001-.001c7.839-.869 13.776-2.452 19.353-5.191l.002-.001c4.22-2.057 6.675-3.75 9.411-6.502l.552-.565c4.386-4.555 6.952-9.931 7.881-16.483v-.001c.18-1.235.248-3.252.214-5.281-.033-2.028-.168-4.019-.38-5.205-1.354-7.541-5.61-13.725-12.682-18.377h-.001c-2.783-1.845-7.063-3.849-11.001-5.19l-.782-.26a15.302 15.302 0 0 1-1.08-.371 5.108 5.108 0 0 1-.353-.151 1.423 1.423 0 0 1-.139-.077.7.7 0 0 1-.095-.075.518.518 0 0 1-.162-.373v-.08l.025-.078c.033-.1.091-.164.106-.182a.696.696 0 0 1 .133-.111c.04-.026.088-.055.137-.083a12.6 12.6 0 0 1 .402-.215c.328-.169.775-.389 1.265-.625l.005-.002a32.897 32.897 0 0 0 9.356-6.534l.002-.002c2.372-2.349 3.753-4.235 5.124-7.003h.001c2.282-4.583 3.168-8.486 3.119-14.044l-.022-1.135v-.002c-.083-3.335-.432-5.485-1.289-8.084-.99-3.012-2.845-6.367-4.946-8.941-4.47-5.444-12.571-9.782-21.721-11.564-2.709-.526-3.52-.768-7.716-.891-3.17-.093-8.248-.116-17.465-.136l-10.68-.021-29.273-.066v124.301l29.863-.066ZM512.135 29.204l.5.001 21.607.068c19.351.05 21.817.082 23.598.34l.002.001c3.96.593 7.432 1.614 10.168 2.987l.001-.001c5.284 2.642 8.976 6.932 10.398 12.19h-.001c.221.805.345 1.31.41 2.072.063.743.071 1.733.079 3.512v.003c0 3.852-.149 5.27-.912 7.516l-.161.46c-2.778 7.756-9.986 12.65-20.9 14.448h.001c-.892.15-1.815.225-4.924.271-3.113.046-8.447.063-18.179.088l-21.187.068h-.5V29.204Zm0 55.769h22.611c6.863 0 12.578.016 16.735.047 4.139.032 6.767.079 7.427.14 11.326.963 19.468 4.483 23.735 10.467l.001-.001c2.779 3.879 3.921 9.188 3.21 14.709l-.074.534c-1.439 9.698-9.009 16.211-21.184 18.503h-.001c-3.931.733-4.987.764-29.006.764h-23.454V84.973Zm109.802 56.925V93.201h36.721l.151.2 18.187 24.282.001.001c4.993 6.682 9.556 12.76 12.882 17.171 1.663 2.206 3.016 3.996 3.958 5.235.471.62.84 1.101 1.093 1.429l.252.325c.12.003.289.007.503.01.451.006 1.094.01 1.88.013 1.573.006 3.719.008 6.058-.001v-.001l7.509-.044-18.633-24.729a4696.178 4696.178 0 0 1-13.564-18.054 1033.377 1033.377 0 0 1-4.099-5.519c-.482-.654-.856-1.166-1.107-1.518a19.982 19.982 0 0 1-.289-.411c-.031-.047-.06-.09-.082-.126-.009-.016-.025-.042-.039-.071-.005-.012-.021-.046-.034-.091-.005-.02-.018-.07-.018-.134 0-.052.007-.217.147-.357l.026-.025.028-.021c.056-.042.112-.065.127-.072a3.262 3.262 0 0 1 .231-.076c.118-.033.274-.072.455-.116.365-.088.847-.193 1.358-.295 8.407-1.694 16.058-5.461 21.354-10.447l.506-.487c5.01-4.947 7.999-10.837 9.239-18.255l.116-.723c.17-1.15.246-3.553.229-5.986-.017-2.435-.126-4.825-.312-5.949-1.944-11.707-8.338-20.153-19.295-25.492h-.001c-4.78-2.336-9.074-3.652-15.052-4.59l-1.219-.183c-2.564-.363-2.544-.365-32.72-.415l-29.694-.066v124.285h13.147Zm0-112.358.501.001 22.028.067c7.822.026 13.432.055 17.213.097 1.89.021 3.325.046 4.352.074 1.005.028 1.65.061 1.943.104l.001-.001c5.69.777 8.775 1.611 12.557 3.42l.001-.001c6.93 3.3 11.231 8.44 12.903 15.449l-.001.001c.298 1.243.485 3.226.548 5.201.064 1.978.006 4.005-.204 5.335v.001l-.076.454c-.824 4.669-2.816 8.629-6.034 12.004l-.001.001c-4.725 4.934-10.712 7.774-19.457 9.298h-.002c-.785.134-1.776.205-5.018.25-3.251.047-8.8.069-18.725.094l-22.028.067-.501.001V29.54Z"/>
  <path fill="#008A81" d="M51.533 19.73c0 .924.118 5.34.252 9.824.135 4.484.253 8.346.253 8.598 0 .386-.202.537-1.785 1.394-3.385 1.78-6.315 3.879-9.583 6.885l-1.684 1.544-9.599-3.408c-5.288-1.881-9.65-3.392-9.717-3.376-.05.017 2.711 3.695 6.164 8.161l6.281 8.128-.96 2.032c-1.751 3.66-3.014 7.556-3.62 11.183-.169.974-.388 1.848-.489 1.948-.1.101-4.563 1.461-9.902 3.023-5.355 1.562-9.667 2.888-9.6 2.939.068.067 3.908 1.225 8.539 2.586 4.631 1.343 9.027 2.636 9.785 2.871l1.364.403.202 1.394c.539 3.644 1.953 8.11 3.705 11.788l.976 2.032-6.281 8.127c-3.453 4.467-6.265 8.161-6.231 8.178.033.034 4.429-1.494 9.784-3.392l9.717-3.459 1.718 1.646c2.779 2.686 6.046 5.054 9.6 6.952l1.667.873-.118 2.703c-.185 5.021-.472 16.641-.421 17.212.067.521.471-.033 5.844-7.858 3.755-5.441 5.894-8.413 6.062-8.413.169 0 1.162.117 2.223.268 2.779.387 8.185.387 11.166 0 1.97-.268 2.374-.268 2.56-.084.117.135 2.745 3.93 5.826 8.43 5.187 7.573 5.625 8.161 5.693 7.641.05-.605-.253-13.921-.422-17.616l-.1-2.283 1.801-.957c3.42-1.797 6.501-4.014 9.617-6.902l1.684-1.562 9.666 3.426c5.305 1.881 9.684 3.409 9.701 3.375.033-.033-2.712-3.627-6.097-8.01-3.385-4.383-6.197-8.077-6.248-8.194-.05-.118.32-1.109.842-2.183 1.735-3.695 3.032-7.708 3.604-11.302.303-1.78.32-1.83.809-1.998.286-.084 4.681-1.377 9.767-2.855 5.103-1.494 9.313-2.77 9.381-2.837.067-.05-4.093-1.344-9.263-2.855-5.153-1.511-9.616-2.838-9.902-2.956-.472-.184-.539-.302-.64-1.108-.421-3.274-2.038-8.514-3.655-11.889-.539-1.142-.993-2.166-.993-2.267 0-.1 2.795-3.812 6.214-8.245 3.435-4.433 6.181-8.077 6.113-8.094-.067-.016-4.429 1.495-9.717 3.376l-9.599 3.408-1.6-1.51c-1.785-1.697-3.924-3.376-6.063-4.82-1.516-1.008-4.277-2.603-5.001-2.872l-.421-.15.1-2.402c.169-4.03.472-16.792.422-17.48-.068-.639-.186-.488-5.861 7.774l-5.81 8.447-.758-.101c-.421-.067-1.38-.202-2.122-.302-2.223-.32-8.404-.27-10.93.1-1.178.168-2.223.235-2.29.151-.067-.067-2.644-3.795-5.726-8.278-3.065-4.484-5.658-8.212-5.743-8.312-.084-.084-.151.503-.151 1.51Zm109.718 36.86c-.051.084-.455.168-.893.168-.876 0-2.997.353-4.412.722-5.322 1.427-10.879 6.096-13.439 11.284-.455.924-.909 1.898-1.011 2.183-.336.907-.858 3.09-.976 4.114-.068.555-.186 1.058-.253 1.109-.185.117-.202 4.651-.017 4.853.084.1.236.772.354 1.511.303 1.931.775 3.493 1.448 4.903.32.672.59 1.26.59 1.31 0 .151 1.094 1.864 1.835 2.855 1.095 1.444 3.419 3.728 5.002 4.903 2.476 1.814 6.13 3.325 8.909 3.661.505.067.977.185 1.027.269.118.201 61.486.201 61.604 0 .05-.068.556-.185 1.111-.252 2.644-.303 6.77-2.049 9.212-3.913 1.499-1.142 4.109-3.812 5.12-5.256 1.903-2.703 3.385-6.683 3.637-9.79.051-.722.169-1.343.253-1.394.185-.117.168-2.384-.034-2.502-.084-.05-.168-.42-.168-.806 0-2.015-.859-5.172-2.071-7.59-1.6-3.19-4.177-6.213-7.09-8.295-2.863-2.066-6.922-3.594-10.172-3.829-.758-.05-1.432-.168-1.482-.252-.135-.201-57.95-.167-58.084.034Z"/>
  <path fill="#015A94" stroke="#fff" d="M473.058 84.973h15.667V73.21h-26.379l-2.432 5.936-.996 2.438a433.784 433.784 0 0 0-1.321 3.294c.165.005.359.011.58.015.818.017 2.003.031 3.467.042 2.929.024 6.969.037 11.414.037Zm-345.437 55.404c6.245 1.083 13.72 1.166 20.001.25 19.929-2.915 37.474-15.509 46.714-33.602v-.001l.72-1.405h-7.987l-8.543.017-.441.653c-2.12 3.137-6.282 7.556-9.534 10.137l-.001.001c-5.615 4.444-12.892 7.937-19.571 9.398v.001c-4.133.899-5.568 1.036-10.632 1.036-4.988 0-7.187-.21-11.047-1.145l-.796-.197c-6.366-1.596-13.2-4.985-18.159-8.993l-1.071-.852-1.301 1.257-.002.001c-2.615 2.512-5.796 4.949-8.81 6.756l-.599.352-.882.515.703.649-.001.001c3.099 2.841 8.016 6.292 12.077 8.508 5.745 3.131 12.782 5.581 19.16 6.663h.002Z"/>
</svg>
